<svg width="39" height="48" viewBox="0 0 39 48" fill="none" xmlns="http://www.w3.org/2000/svg">
<path d="M19.2 48C28.8 38.4 38.4 29.8039 38.4 19.2C38.4 8.59613 29.8039 0 19.2 0C8.59613 0 0 8.59613 0 19.2C0 29.8039 9.6 38.4 19.2 48Z" fill="#71B52F"/>
<path fill-rule="evenodd" clip-rule="evenodd" d="M16.2188 7.37638C22.6212 5.73466 29.1814 9.61802 30.8231 16.0196C32.464 22.4213 28.5816 28.9823 22.1796 30.6236C15.7777 32.2653 9.21703 28.3828 7.57575 21.9803C5.93357 15.5787 9.81688 9.01854 16.2188 7.37638Z" fill="white"/>
<path fill-rule="evenodd" clip-rule="evenodd" d="M12.5968 12.7559C14.2241 13.125 15.883 13.3372 17.5507 13.3895C20.4701 13.4847 23.6554 13.4021 27.4701 13.3895L28.8052 13.385C29.1226 13.3837 29.2132 13.7434 28.8635 13.843L27.6867 14.1776C20.5302 16.3362 14.8649 19.4243 10.9152 25.9063C10.7574 26.1649 10.4884 26.1155 10.5413 25.8088C11.0533 22.8415 11.6101 19.8073 12.9779 17.0919C12.1835 15.9801 11.2407 14.6913 10.4306 12.8812C10.3387 12.676 10.2678 12.5318 10.2212 12.4048C10.1046 12.0877 10.327 11.9346 10.5951 12.0756C10.8632 12.217 11.8535 12.5893 12.5968 12.7559ZM27.1276 15.5059L28.6317 15.4978L29.9668 15.4933C30.2838 15.4924 30.3739 15.8516 30.0246 15.9513L28.8478 16.2863C21.6918 18.4449 16.2398 21.1046 12.2902 27.5875C12.1333 27.8457 11.8732 27.7065 11.9167 27.398C11.9862 26.9036 12.0557 26.4227 12.1301 25.9521C15.8668 20.5186 20.9158 17.5809 27.1276 15.5068V15.5059Z" fill="#71B52F"/>
</svg>
